<svg t="1585152290278" class="icon" viewBox="0 0 1024 1024" version="1.1" xmlns="http://www.w3.org/2000/svg" p-id="2288" width="20" height="20">
<path d="M1023.96881 512.097218c0-282.258252-228.984564-511.073983-511.45258-511.073983-282.473132 0-511.462812 228.81573-511.462812 511.073983 0 260.737582 195.390748 475.854247 447.837059 507.156017 14.231147 2.999101 31.564742 4.746785 52.209524 4.746785 5.795601 0 11.384509-0.304924 16.782071-0.857471C797.877953 1020.265214 1023.96881 792.575042 1023.96881 512.097218zM950.836184 519.328417c-1.471411-25.50003-4.8399-50.460816-9.969375-74.71864 0.455339-8.661681 0.579151-16.868023 0.346877-24.497261 6.343032 29.660503 9.687986 60.432238 9.687986 91.984701C950.902694 514.513075 950.875066 516.921769 950.836184 519.328417zM74.120557 512.097218c0-30.977406 3.225236-61.200687 9.345202-90.360828 18.931887 20.247767 63.554127 19.769916 74.436227-10.483039 19.471132 11.604504 45.637288 13.717484 45.637288 36.912166 0 76.55023 2.725897 158.618764 72.279249 159.886552 1.958471 0.025581 38.788779 13.957944 56.316788 59.416166 6.060619 15.711768 30.03296 0 56.321904 0 13.124008 0 0 22.110054 0 69.921716 0 47.626456 102.680573 120.959637 102.680573 120.959637-0.475804 31.525859 0.818588 57.017704 3.442161 77.383143-23.177288-0.426689-42.709814 2.645062-58.055264 7.868674C230.627365 907.64494 74.120557 728.14298 74.120557 512.097218zM620.440881 936.783593c-2.272604-11.126653-12.215375-17.220016-30.356302-12.451742 14.474677-61.640678 21.511462-96.169731 51.728604-122.387049 43.719747-37.898565 5.206218-80.043553-28.063233-75.076772-26.222434 3.958895-9.651149-32.467235-33.055595-34.481984-23.404446-1.958471-53.969488-48.511554-87.653349-64.530293-17.855444-8.479545-35.402895-31.20354-62.940186-32.221659-24.407216-0.946492-60.076152 20.637619-60.076152 3.999824 0-53.590891-5.426213-91.832239-6.541539-107.104016-0.900446-12.269607-8.020113-4.132845 24.974088-3.339838 17.956745 0.48092 9.185577-36.067998 26.959163-37.49541 17.456383-1.381367 59.052918 16.341057 69.650559 9.277668 9.845564-6.577352 72.37134 164.126836 72.37134 28.216718 0-16.126178-8.351641-44.16383 0-59.436631 33.030014-60.352426 63.952165-109.539315 61.175106-116.734701-1.575781-4.050986-33.792324-7.39594-59.569651 1.253462-8.699541 2.904963 2.766826 16.530356-9.727892 19.440435-46.814008 10.807404-88.175199-12.622623-73.691312-34.645702 14.831786-22.57051 68.571046-9.845564 73.282019-55.12472 2.710549-25.935928 4.956549-55.974005 6.45968-78.298938 63.00465 9.852726 56.069165-81.767703-37.613082-91.574384 189.525567 2.217349 350.128383 124.615654 409.062605 294.48693-2.980683-2.718734-6.448425-4.371258-10.453365-4.774413-28.324158-70.749513-97.07427-19.547875-73.752706 42.855113-124.959461 96.057175-92.973146 163.05244-51.917902 201.416576 21.603553 20.166932 42.200243 50.49663 55.610756 72.279249-14.596442 42.561445 53.781213 25.518449 87.503957-46.709638C890.91147 782.384648 771.249295 898.633312 620.440881 936.783593z" p-id="2600" fill="#ffffff"></path>
</svg>