<svg t="1585152290278" class="icon" viewBox="0 0 1024 1024" version="1.1" xmlns="http://www.w3.org/2000/svg" p-id="2288" width="16" height="16"><path d="M953.6 198.4c-6.4 0-19.2-6.4-25.6-12.8l-102.4-102.4c-12.8-12.8-12.8-32 0-44.8 12.8-6.4 32-6.4 44.8 6.4l102.4 102.4c12.8 12.8 12.8 32 0 44.8-6.4 6.4-12.8 6.4-19.2 6.4z m0 0M134.4 198.4c-6.4 0-19.2-6.4-25.6-12.8-12.8-12.8-12.8-32 0-44.8L211.2 38.4c12.8-12.8 38.4-12.8 51.2 0 12.8 12.8 12.8 32 0 44.8L153.6 185.6c-6.4 6.4-12.8 12.8-19.2 12.8z m0 0" p-id="2688" fill="#ffffff"></path><path d="M768 320c12.8-12.8 12.8-32 0-44.8-12.8-12.8-38.4-12.8-51.2 0L582.4 409.6c-12.8-6.4-32-12.8-44.8-12.8-12.8 0-32 6.4-44.8 12.8L396.8 307.2c-12.8-12.8-38.4-12.8-51.2 0-12.8 12.8-12.8 32 0 44.8L448 454.4c-12.8 12.8-12.8 25.6-12.8 44.8 0 57.6 44.8 102.4 102.4 102.4 57.6 0 102.4-44.8 102.4-102.4 0-12.8-6.4-32-12.8-44.8L768 320zM537.6 531.2c-19.2 0-32-12.8-32-32s12.8-32 32-32 32 12.8 32 32-12.8 32-32 32z m0 0" p-id="2689" fill="#ffffff"></path><path d="M857.6 800c76.8-76.8 128-185.6 128-300.8 0-236.8-198.4-428.8-448-428.8s-448 192-448 428.8c0 115.2 51.2 224 128 300.8l-51.2 76.8c-12.8 12.8-6.4 38.4 12.8 44.8 0 6.4 6.4 6.4 12.8 6.4 12.8 0 19.2-6.4 25.6-12.8l44.8-70.4c83.2 51.2 172.8 83.2 275.2 83.2 102.4 0 192-32 268.8-89.6l51.2 70.4c6.4 6.4 19.2 12.8 25.6 12.8 6.4 0 12.8 0 19.2-6.4 12.8-12.8 19.2-32 6.4-44.8l-51.2-70.4zM166.4 499.2c0-198.4 172.8-364.8 377.6-364.8 211.2 0 377.6 166.4 377.6 364.8s-172.8 364.8-377.6 364.8c-211.2 0-377.6-166.4-377.6-364.8z m0 0" p-id="2690" fill="#ffffff"></path>

</svg>