<svg t="1585152290278" class="icon" viewBox="0 0 1024 1024" version="1.1" xmlns="http://www.w3.org/2000/svg" p-id="2288" width="16" height="16"><path d="M1012.5 780.4V71.5H10.7v708.9h376.1V898h-103v54.1h475.6v-54.2h-99.5V780.4h352.6zM64.9 125.7h893.4v600.4H64.9V125.7z m540.9 772.2H441.1V780.4h164.7v117.5z m0 0" p-id="1800" fill="#ffffff"></path><path d="M631.7 225.4l-45.2 249.8-82.8 1.7-14 41.7-104.3-264.4-82 232.9-6.5 27.6-18.2-45.6H130.1v54.2H242L310.5 695l44.6-191 33.3-94.5 105.4 267.3L543 530.3l89-1.9 16.3-90.2 30.4 86.8 203.6 2 0.6-54.2-165.7-1.6-85.5-245.8z m0 0" p-id="1801" fill="#ffffff"></path>
</svg>